<?xml version="1.0" encoding="UTF-8" standalone="no"?><!DOCTYPE svg PUBLIC "-//W3C//DTD SVG 1.1//EN" "http://www.w3.org/Graphics/SVG/1.1/DTD/svg11.dtd"><svg width="100%" height="100%" viewBox="0 0 78 10" version="1.1" xmlns="http://www.w3.org/2000/svg" xmlns:xlink="http://www.w3.org/1999/xlink" xml:space="preserve" xmlns:serif="http://www.serif.com/" style="fill-rule:evenodd;clip-rule:evenodd;stroke-linejoin:round;stroke-miterlimit:1.41421;"><path d="M18.457,5.969c-0.079,0.677 -0.328,1.199 -0.749,1.567c-0.42,0.367 -0.979,0.551 -1.676,0.551c-0.756,0 -1.362,-0.271 -1.817,-0.813c-0.456,-0.542 -0.684,-1.267 -0.684,-2.175l0,-0.615c0,-0.595 0.106,-1.118 0.319,-1.569c0.212,-0.451 0.513,-0.798 0.903,-1.04c0.39,-0.241 0.841,-0.362 1.353,-0.362c0.68,0 1.225,0.19 1.635,0.569c0.41,0.379 0.649,0.905 0.716,1.575l-0.848,0c-0.073,-0.511 -0.232,-0.881 -0.476,-1.11c-0.245,-0.23 -0.587,-0.344 -1.027,-0.344c-0.539,0 -0.961,0.199 -1.267,0.598c-0.307,0.399 -0.46,0.966 -0.46,1.702l0,0.62c0,0.695 0.145,1.248 0.435,1.658c0.29,0.411 0.696,0.616 1.218,0.616c0.468,0 0.828,-0.106 1.079,-0.318c0.25,-0.213 0.416,-0.583 0.498,-1.11l0.848,0Z" style="fill:#fff;fill-rule:nonzero;"/><path d="M23.142,6.325l-2.681,0l-0.602,1.674l-0.87,0l2.444,-6.398l0.738,0l2.448,6.398l-0.866,0l-0.611,-1.674Zm-2.426,-0.69l2.176,0l-1.09,-2.993l-1.086,2.993Z" style="fill:#fff;fill-rule:nonzero;"/><path d="M27.365,5.147c-0.723,-0.208 -1.25,-0.463 -1.58,-0.767c-0.329,-0.303 -0.494,-0.677 -0.494,-1.122c0,-0.504 0.201,-0.921 0.604,-1.251c0.403,-0.329 0.927,-0.494 1.571,-0.494c0.44,0 0.832,0.085 1.176,0.255c0.344,0.17 0.611,0.404 0.8,0.703c0.189,0.299 0.283,0.625 0.283,0.98l-0.848,0c0,-0.388 -0.123,-0.693 -0.369,-0.915c-0.246,-0.222 -0.593,-0.333 -1.042,-0.333c-0.416,0 -0.74,0.092 -0.973,0.275c-0.233,0.183 -0.349,0.438 -0.349,0.764c0,0.261 0.11,0.482 0.331,0.662c0.222,0.181 0.598,0.346 1.13,0.496c0.531,0.149 0.947,0.314 1.248,0.494c0.3,0.181 0.523,0.391 0.668,0.631c0.145,0.24 0.217,0.523 0.217,0.848c0,0.519 -0.202,0.934 -0.606,1.246c-0.404,0.312 -0.945,0.468 -1.622,0.468c-0.439,0 -0.849,-0.084 -1.23,-0.253c-0.381,-0.168 -0.675,-0.399 -0.881,-0.692c-0.207,-0.293 -0.31,-0.625 -0.31,-0.997l0.848,0c0,0.386 0.143,0.692 0.428,0.916c0.286,0.224 0.668,0.336 1.145,0.336c0.446,0 0.787,-0.091 1.024,-0.272c0.237,-0.182 0.356,-0.429 0.356,-0.743c0,-0.313 -0.11,-0.556 -0.329,-0.727c-0.22,-0.172 -0.619,-0.341 -1.196,-0.508Z" style="fill:#fff;fill-rule:nonzero;"/><path d="M35.526,5.969c-0.079,0.677 -0.329,1.199 -0.749,1.567c-0.421,0.367 -0.98,0.551 -1.677,0.551c-0.756,0 -1.362,-0.271 -1.817,-0.813c-0.456,-0.542 -0.683,-1.267 -0.683,-2.175l0,-0.615c0,-0.595 0.106,-1.118 0.318,-1.569c0.213,-0.451 0.514,-0.798 0.903,-1.04c0.39,-0.241 0.841,-0.362 1.354,-0.362c0.679,0 1.224,0.19 1.635,0.569c0.41,0.379 0.648,0.905 0.716,1.575l-0.848,0c-0.074,-0.511 -0.232,-0.881 -0.477,-1.11c-0.245,-0.23 -0.587,-0.344 -1.026,-0.344c-0.539,0 -0.962,0.199 -1.268,0.598c-0.306,0.399 -0.459,0.966 -0.459,1.702l0,0.62c0,0.695 0.145,1.248 0.435,1.658c0.29,0.411 0.696,0.616 1.217,0.616c0.469,0 0.828,-0.106 1.079,-0.318c0.25,-0.213 0.417,-0.583 0.499,-1.11l0.848,0Z" style="fill:#fff;fill-rule:nonzero;"/><path d="M41.595,7.999l-0.848,0l0,-2.957l-3.226,0l0,2.957l-0.844,0l0,-6.398l0.844,0l0,2.751l3.226,0l0,-2.751l0.848,0l0,6.398Z" style="fill:#fff;fill-rule:nonzero;"/><path d="M44.921,4.813l1.67,-3.212l0.958,0l-2.206,4.012l0,2.386l-0.844,0l0,-2.386l-2.206,-4.012l0.967,0l1.661,3.212Z" style="fill:#fff;fill-rule:nonzero;"/><path d="M50.19,5.147c-0.723,-0.208 -1.25,-0.463 -1.579,-0.767c-0.33,-0.303 -0.495,-0.677 -0.495,-1.122c0,-0.504 0.202,-0.921 0.604,-1.251c0.403,-0.329 0.927,-0.494 1.571,-0.494c0.44,0 0.832,0.085 1.176,0.255c0.344,0.17 0.611,0.404 0.8,0.703c0.189,0.299 0.283,0.625 0.283,0.98l-0.848,0c0,-0.388 -0.123,-0.693 -0.369,-0.915c-0.246,-0.222 -0.593,-0.333 -1.042,-0.333c-0.416,0 -0.74,0.092 -0.973,0.275c-0.233,0.183 -0.349,0.438 -0.349,0.764c0,0.261 0.11,0.482 0.332,0.662c0.221,0.181 0.597,0.346 1.129,0.496c0.532,0.149 0.948,0.314 1.248,0.494c0.3,0.181 0.523,0.391 0.668,0.631c0.145,0.24 0.217,0.523 0.217,0.848c0,0.519 -0.202,0.934 -0.606,1.246c-0.404,0.312 -0.945,0.468 -1.622,0.468c-0.439,0 -0.849,-0.084 -1.23,-0.253c-0.381,-0.168 -0.675,-0.399 -0.881,-0.692c-0.207,-0.293 -0.31,-0.625 -0.31,-0.997l0.848,0c0,0.386 0.143,0.692 0.429,0.916c0.285,0.224 0.667,0.336 1.144,0.336c0.446,0 0.787,-0.091 1.024,-0.272c0.238,-0.182 0.356,-0.429 0.356,-0.743c0,-0.313 -0.11,-0.556 -0.329,-0.727c-0.22,-0.172 -0.618,-0.341 -1.196,-0.508Z" style="fill:#fff;fill-rule:nonzero;"/><path d="M55.873,7.999l0,-6.398l2.091,0c0.695,0 1.217,0.143 1.567,0.43c0.35,0.288 0.525,0.712 0.525,1.275c0,0.299 -0.085,0.563 -0.255,0.793c-0.17,0.23 -0.401,0.408 -0.694,0.534c0.346,0.097 0.619,0.281 0.819,0.552c0.201,0.271 0.302,0.594 0.302,0.969c0,0.574 -0.187,1.025 -0.559,1.353c-0.372,0.328 -0.898,0.492 -1.577,0.492l-2.219,0Zm0.843,-2.992l0,2.302l1.393,0c0.393,0 0.703,-0.102 0.93,-0.305c0.227,-0.204 0.34,-0.484 0.34,-0.842c0,-0.77 -0.419,-1.155 -1.256,-1.155l-1.407,0Zm0,-0.677l1.275,0c0.369,0 0.664,-0.093 0.885,-0.278c0.221,-0.185 0.332,-0.436 0.332,-0.753c0,-0.352 -0.103,-0.608 -0.308,-0.768c-0.205,-0.16 -0.517,-0.24 -0.936,-0.24l-1.248,0l0,2.039Z" style="fill:#fff;fill-rule:nonzero;"/><path d="M62.324,7.309l3.032,0l0,0.69l-3.88,0l0,-6.398l0.848,0l0,5.708Z" style="fill:#fff;fill-rule:nonzero;"/><path d="M70.955,5.007c0,0.626 -0.106,1.174 -0.317,1.641c-0.211,0.467 -0.51,0.824 -0.896,1.07c-0.387,0.246 -0.838,0.369 -1.354,0.369c-0.504,0 -0.951,-0.124 -1.34,-0.371c-0.39,-0.248 -0.692,-0.601 -0.908,-1.059c-0.215,-0.459 -0.326,-0.99 -0.331,-1.593l0,-0.462c0,-0.615 0.106,-1.158 0.32,-1.63c0.214,-0.472 0.517,-0.833 0.908,-1.083c0.391,-0.251 0.838,-0.376 1.342,-0.376c0.513,0 0.965,0.124 1.356,0.371c0.391,0.248 0.692,0.607 0.903,1.077c0.211,0.47 0.317,1.017 0.317,1.641l0,0.405Zm-0.84,-0.414c0,-0.758 -0.152,-1.341 -0.457,-1.746c-0.305,-0.406 -0.731,-0.609 -1.279,-0.609c-0.533,0 -0.953,0.203 -1.259,0.609c-0.306,0.405 -0.463,0.969 -0.472,1.689l0,0.471c0,0.735 0.154,1.313 0.464,1.733c0.309,0.421 0.734,0.631 1.276,0.631c0.545,0 0.967,-0.199 1.266,-0.596c0.299,-0.397 0.452,-0.966 0.461,-1.707l0,-0.475Z" style="fill:#fff;fill-rule:nonzero;"/><path d="M76.944,7.16c-0.216,0.31 -0.519,0.543 -0.907,0.696c-0.388,0.154 -0.84,0.231 -1.356,0.231c-0.521,0 -0.984,-0.122 -1.389,-0.367c-0.404,-0.244 -0.717,-0.592 -0.938,-1.044c-0.221,-0.451 -0.335,-0.974 -0.34,-1.568l0,-0.558c0,-0.964 0.224,-1.711 0.674,-2.242c0.45,-0.53 1.082,-0.795 1.896,-0.795c0.668,0 1.206,0.171 1.613,0.512c0.407,0.341 0.656,0.825 0.747,1.452l-0.843,0c-0.159,-0.849 -0.663,-1.274 -1.512,-1.274c-0.566,0 -0.994,0.198 -1.286,0.596c-0.291,0.397 -0.438,0.973 -0.441,1.726l0,0.523c0,0.719 0.164,1.29 0.492,1.714c0.328,0.423 0.772,0.635 1.332,0.635c0.316,0 0.593,-0.035 0.83,-0.105c0.237,-0.07 0.434,-0.189 0.589,-0.355l0,-1.434l-1.481,0l0,-0.69l2.32,0l0,2.347Z" style="fill:#fff;fill-rule:nonzero;"/><g><path d="M5.518,9.493c2.591,0 4.693,-2.101 4.693,-4.693c0,-0.091 -0.003,-0.181 -0.008,-0.27c-0.184,-0.191 -0.392,-0.372 -0.625,-0.541c-0.023,-0.017 -0.047,-0.034 -0.07,-0.05c0.06,0.281 0.091,0.568 0.091,0.861c0,0.551 -0.108,1.086 -0.321,1.588c-0.205,0.486 -0.5,0.923 -0.875,1.298c-0.375,0.375 -0.811,0.669 -1.297,0.875c-0.503,0.212 -1.037,0.32 -1.588,0.32c-0.552,0 -1.086,-0.108 -1.589,-0.32c-0.486,-0.206 -0.922,-0.5 -1.297,-0.875c-0.375,-0.375 -0.67,-0.812 -0.875,-1.298c-0.213,-0.502 -0.321,-1.037 -0.321,-1.588c0,-0.293 0.031,-0.58 0.091,-0.861c-0.023,0.016 -0.047,0.033 -0.07,0.049c-0.233,0.17 -0.441,0.351 -0.625,0.542c-0.005,0.089 -0.008,0.179 -0.008,0.27c0,2.592 2.102,4.693 4.694,4.693Z" style="fill:#fff;fill-rule:nonzero;"/><path d="M2.258,2.343c0.114,-0.15 0.239,-0.294 0.374,-0.429c0.375,-0.375 0.811,-0.669 1.297,-0.875c0.503,-0.212 1.037,-0.32 1.589,-0.32c0.551,0 1.085,0.108 1.588,0.32c0.486,0.206 0.922,0.5 1.297,0.875c0.136,0.135 0.26,0.279 0.374,0.429c0.356,0.147 0.695,0.318 1.013,0.513c-0.739,-1.622 -2.374,-2.749 -4.272,-2.749c-1.899,0 -3.534,1.127 -4.273,2.749c0.318,-0.195 0.657,-0.366 1.013,-0.513Z" style="fill:#fff;fill-rule:nonzero;"/><path d="M5.518,2.591c2.38,0 4.45,0.756 5.505,1.869c0.004,-0.027 0.008,-0.054 0.012,-0.081c-1.135,-1.35 -3.181,-2.251 -5.517,-2.251c-2.337,0 -4.383,0.901 -5.518,2.251c0.004,0.027 0.008,0.054 0.012,0.081c1.055,-1.113 3.125,-1.869 5.506,-1.869Z" style="fill:#fff;fill-rule:nonzero;"/></g></svg>