<svg version="1.1" id="Ebene_1" xmlns="http://www.w3.org/2000/svg" viewBox="0 0 472.2 96.1" xml:space="preserve">
<path fill="#F3F4F6" d="M472,37.4V20.6h-15.4V3.3l-18.4,1.6l-3.8,15.7h-8.2v16.8h7V72c0,14.5,7.6,23.8,23.8,23.8c5.8,0,12.5-1,15.1-2.3
	l-2.3-16.2c-1.8,0.6-3.8,0.8-5.7,0.8c-5.3,0-7.6-2.1-7.6-6.8v-34L472,37.4L472,37.4z M421,94.6V0l-23.6,1.1v93.5H421z M350.1,49.6
	c0.7-9,3.3-11.7,10.3-11.7c6.4,0,9.8,3.3,10,11.7H350H350.1z M364.8,96c9.7,0,18.8-1.8,24.9-4.5l-2.5-17.9c-6.3,2-12.9,3-19.5,3
	c-10.9,0-16.2-3.4-17.2-12.3h40.5c0.4-3.5,0.6-6.9,0.6-10.4c0-23.4-11.7-34.5-31.5-34.5c-23.2,0-33.9,14.2-33.9,37.8
	C326.3,82.1,338.4,95.9,364.8,96 M263.8,20.5l-7.3,43.8l-1.3,9.7h-0.4l-8.4-53.5h-23.4l17.1,74.1h28.4l6.2-38.7l1.3-9.8h0.4l1.2,9.8
	l5.9,38.7H312l15.9-74.1h-22.7l-6.4,43.7l-1.2,9.7h-0.4l-1.6-9.7L288,20.6L263.8,20.5L263.8,20.5z M220.4,21.4
	c-4.5-1.7-9.6-1.9-15.5-1.9c-24.7,0-35.2,14.3-35.2,38.6c0,25.2,12.1,38,34.7,38c8.1,0,16.7-1.8,21-4.3l-1.6-17.4
	c-4.6,1.6-9.5,2.5-14.4,2.6c-9.8,0-15.6-5.6-15.6-18.9c0-13.8,3.6-18.6,16.1-18.6c3.6,0,7.2-0.2,10.7,0.8L220.4,21.4z M142.4,71.5
	c0,4-4.4,6.8-9.3,6.8c-4.7,0-7.7-2.2-7.7-7.5s2.9-7.9,9.1-7.9c2.7,0,5.4,0.3,8,1.1L142.4,71.5L142.4,71.5z M147.6,94.6h17.9V49.8
	c0-20.5-7.6-30.5-31-30.5c-9.9,0-18.8,1.6-26.4,4.8l1.8,17.7c7-2.5,11.9-3.8,20.2-3.8c9.1,0,12.2,3,12.2,8.5v2.7
	c-4.1-1.1-8.3-1.6-12.5-1.6c-16.6,0-26.4,9.8-26.4,23.3c0,16.6,8.7,24.8,23.1,24.8c7.9,0,14.4-2.7,19.2-7.3L147.6,94.6z M0,3.9v90.8
	h22.3V56.1l-0.1-9.8l0.2-0.1l3.3,9.3l14.9,39.1h16.6L72,55.8l3.4-9.3l0.4,0.1l-0.2,9.8v38.2h23.1V3.9H71L52.8,50.3l-3.3,9.1h-0.4
	l-3.4-9.2l-18-46.3L0,3.9L0,3.9z"/>
</svg>
