<svg width="1200" height="760" viewBox="0 0 1200 760" fill="none" xmlns="http://www.w3.org/2000/svg">
  <rect width="1200" height="760" rx="36" fill="#F6F1E6"/>
  <rect x="112" y="82" width="976" height="596" rx="34" fill="#FFFFFF"/>
  <rect x="176" y="146" width="624" height="58" rx="29" fill="#E9F0E5"/>
  <circle cx="218" cy="175" r="18" fill="#365D49"/>
  <rect x="254" y="164" width="184" height="22" rx="11" fill="#91A78A"/>
  <rect x="176" y="254" width="848" height="112" rx="24" fill="#F8F5EF"/>
  <rect x="210" y="288" width="258" height="22" rx="11" fill="#365D49"/>
  <rect x="210" y="326" width="396" height="18" rx="9" fill="#B8C6B2"/>
  <rect x="176" y="394" width="848" height="112" rx="24" fill="#F8F5EF"/>
  <rect x="210" y="428" width="220" height="22" rx="11" fill="#365D49"/>
  <rect x="210" y="466" width="348" height="18" rx="9" fill="#B8C6B2"/>
  <rect x="176" y="534" width="848" height="112" rx="24" fill="#F8F5EF"/>
  <rect x="210" y="568" width="242" height="22" rx="11" fill="#365D49"/>
  <rect x="210" y="606" width="302" height="18" rx="9" fill="#B8C6B2"/>
</svg>
