<svg xmlns="http://www.w3.org/2000/svg" viewBox="0 0 1200 900" role="img" aria-labelledby="title desc">
  <title id="title">Search feature preview</title>
  <desc id="desc">Illustrated search interface preview for the What's New article.</desc>
  <defs>
    <linearGradient id="panel" x1="0%" y1="0%" x2="100%" y2="100%">
      <stop offset="0%" stop-color="#e2e8f0" />
      <stop offset="100%" stop-color="#cbd5e1" />
    </linearGradient>
    <linearGradient id="accent" x1="0%" y1="0%" x2="100%" y2="0%">
      <stop offset="0%" stop-color="#0f766e" />
      <stop offset="100%" stop-color="#14b8a6" />
    </linearGradient>
  </defs>
  <rect width="1200" height="900" rx="48" fill="#0f172a" />
  <rect x="120" y="110" width="960" height="680" rx="40" fill="url(#panel)" />
  <rect x="180" y="180" width="840" height="92" rx="24" fill="#f8fafc" />
  <circle cx="238" cy="226" r="22" fill="none" stroke="#64748b" stroke-width="10" />
  <line x1="252" y1="242" x2="278" y2="268" stroke="#64748b" stroke-width="10" stroke-linecap="round" />
  <text x="320" y="240" font-family="Arial, sans-serif" font-size="34" fill="#64748b">Search foods faster</text>
  <rect x="180" y="320" width="840" height="108" rx="28" fill="#f8fafc" />
  <rect x="180" y="458" width="840" height="108" rx="28" fill="#f8fafc" />
  <rect x="180" y="596" width="840" height="108" rx="28" fill="#f8fafc" />
  <rect x="220" y="352" width="280" height="26" rx="13" fill="url(#accent)" />
  <rect x="220" y="490" width="360" height="26" rx="13" fill="url(#accent)" />
  <rect x="220" y="628" width="320" height="26" rx="13" fill="url(#accent)" />
  <rect x="220" y="390" width="180" height="18" rx="9" fill="#94a3b8" />
  <rect x="220" y="528" width="240" height="18" rx="9" fill="#94a3b8" />
  <rect x="220" y="666" width="210" height="18" rx="9" fill="#94a3b8" />
</svg>
